<svg width="418" height="417" viewBox="0 0 418 417" fill="none" xmlns="http://www.w3.org/2000/svg">
<path d="M88.4886 385.727V409H84.2386L74.1136 394.352H73.9432V409H69.0227V385.727H73.3409L83.3864 400.364H83.5909V385.727H88.4886ZM100.349 409.341C98.5843 409.341 97.0578 408.966 95.7699 408.216C94.4896 407.458 93.5009 406.405 92.804 405.057C92.107 403.701 91.7585 402.129 91.7585 400.341C91.7585 398.538 92.107 396.962 92.804 395.614C93.5009 394.258 94.4896 393.205 95.7699 392.455C97.0578 391.697 98.5843 391.318 100.349 391.318C102.115 391.318 103.637 391.697 104.918 392.455C106.205 393.205 107.198 394.258 107.895 395.614C108.592 396.962 108.94 398.538 108.94 400.341C108.94 402.129 108.592 403.701 107.895 405.057C107.198 406.405 106.205 407.458 104.918 408.216C103.637 408.966 102.115 409.341 100.349 409.341ZM100.372 405.591C101.175 405.591 101.846 405.364 102.384 404.909C102.921 404.447 103.327 403.818 103.599 403.023C103.88 402.227 104.02 401.322 104.02 400.307C104.02 399.292 103.88 398.386 103.599 397.591C103.327 396.795 102.921 396.167 102.384 395.705C101.846 395.242 101.175 395.011 100.372 395.011C99.5616 395.011 98.8797 395.242 98.3267 395.705C97.7813 396.167 97.3684 396.795 97.0881 397.591C96.8153 398.386 96.679 399.292 96.679 400.307C96.679 401.322 96.8153 402.227 97.0881 403.023C97.3684 403.818 97.7813 404.447 98.3267 404.909C98.8797 405.364 99.5616 405.591 100.372 405.591ZM125.926 409.284C124.6 409.284 123.4 408.943 122.324 408.261C121.256 407.572 120.407 406.561 119.778 405.227C119.157 403.886 118.847 402.242 118.847 400.295C118.847 398.295 119.169 396.633 119.812 395.307C120.456 393.973 121.313 392.977 122.381 392.318C123.456 391.652 124.634 391.318 125.915 391.318C126.892 391.318 127.706 391.485 128.358 391.818C129.017 392.144 129.547 392.553 129.949 393.045C130.358 393.53 130.669 394.008 130.881 394.477H131.028V385.727H135.858V409H131.085V406.205H130.881C130.653 406.689 130.331 407.17 129.915 407.648C129.506 408.117 128.972 408.508 128.312 408.818C127.661 409.129 126.866 409.284 125.926 409.284ZM127.46 405.432C128.241 405.432 128.9 405.22 129.438 404.795C129.983 404.364 130.4 403.761 130.688 402.989C130.983 402.216 131.131 401.311 131.131 400.273C131.131 399.235 130.987 398.333 130.699 397.568C130.411 396.803 129.994 396.212 129.449 395.795C128.903 395.379 128.241 395.17 127.46 395.17C126.665 395.17 125.994 395.386 125.449 395.818C124.903 396.25 124.491 396.848 124.21 397.614C123.93 398.379 123.79 399.265 123.79 400.273C123.79 401.288 123.93 402.186 124.21 402.966C124.498 403.739 124.911 404.345 125.449 404.784C125.994 405.216 126.665 405.432 127.46 405.432ZM147.724 409.341C145.959 409.341 144.433 408.966 143.145 408.216C141.865 407.458 140.876 406.405 140.179 405.057C139.482 403.701 139.134 402.129 139.134 400.341C139.134 398.538 139.482 396.962 140.179 395.614C140.876 394.258 141.865 393.205 143.145 392.455C144.433 391.697 145.959 391.318 147.724 391.318C149.49 391.318 151.012 391.697 152.293 392.455C153.58 393.205 154.573 394.258 155.27 395.614C155.967 396.962 156.315 398.538 156.315 400.341C156.315 402.129 155.967 403.701 155.27 405.057C154.573 406.405 153.58 407.458 152.293 408.216C151.012 408.966 149.49 409.341 147.724 409.341ZM147.747 405.591C148.55 405.591 149.221 405.364 149.759 404.909C150.296 404.447 150.702 403.818 150.974 403.023C151.255 402.227 151.395 401.322 151.395 400.307C151.395 399.292 151.255 398.386 150.974 397.591C150.702 396.795 150.296 396.167 149.759 395.705C149.221 395.242 148.55 395.011 147.747 395.011C146.937 395.011 146.255 395.242 145.702 395.705C145.156 396.167 144.743 396.795 144.463 397.591C144.19 398.386 144.054 399.292 144.054 400.307C144.054 401.322 144.19 402.227 144.463 403.023C144.743 403.818 145.156 404.447 145.702 404.909C146.255 405.364 146.937 405.591 147.747 405.591ZM162.469 409L157.719 391.545H162.616L165.321 403.273H165.48L168.298 391.545H173.105L175.969 403.205H176.116L178.776 391.545H183.662L178.923 409H173.798L170.798 398.023H170.582L167.582 409H162.469ZM191.085 398.909V409H186.244V391.545H190.858V394.625H191.062C191.449 393.61 192.097 392.807 193.006 392.216C193.915 391.617 195.017 391.318 196.312 391.318C197.525 391.318 198.581 391.583 199.483 392.114C200.384 392.644 201.085 393.402 201.585 394.386C202.085 395.364 202.335 396.53 202.335 397.886V409H197.494V398.75C197.502 397.682 197.229 396.848 196.676 396.25C196.123 395.644 195.362 395.341 194.392 395.341C193.741 395.341 193.165 395.481 192.665 395.761C192.172 396.042 191.786 396.451 191.506 396.989C191.233 397.519 191.093 398.159 191.085 398.909ZM210.991 385.727V409H206.151V385.727H210.991ZM222.756 409.341C220.991 409.341 219.464 408.966 218.176 408.216C216.896 407.458 215.907 406.405 215.21 405.057C214.513 403.701 214.165 402.129 214.165 400.341C214.165 398.538 214.513 396.962 215.21 395.614C215.907 394.258 216.896 393.205 218.176 392.455C219.464 391.697 220.991 391.318 222.756 391.318C224.521 391.318 226.044 391.697 227.324 392.455C228.612 393.205 229.604 394.258 230.301 395.614C230.998 396.962 231.347 398.538 231.347 400.341C231.347 402.129 230.998 403.701 230.301 405.057C229.604 406.405 228.612 407.458 227.324 408.216C226.044 408.966 224.521 409.341 222.756 409.341ZM222.778 405.591C223.581 405.591 224.252 405.364 224.79 404.909C225.328 404.447 225.733 403.818 226.006 403.023C226.286 402.227 226.426 401.322 226.426 400.307C226.426 399.292 226.286 398.386 226.006 397.591C225.733 396.795 225.328 396.167 224.79 395.705C224.252 395.242 223.581 395.011 222.778 395.011C221.968 395.011 221.286 395.242 220.733 395.705C220.188 396.167 219.775 396.795 219.494 397.591C219.222 398.386 219.085 399.292 219.085 400.307C219.085 401.322 219.222 402.227 219.494 403.023C219.775 403.818 220.188 404.447 220.733 404.909C221.286 405.364 221.968 405.591 222.778 405.591ZM239.472 409.33C238.358 409.33 237.366 409.136 236.494 408.75C235.623 408.356 234.934 407.777 234.426 407.011C233.926 406.239 233.676 405.277 233.676 404.125C233.676 403.155 233.854 402.341 234.21 401.682C234.566 401.023 235.051 400.492 235.665 400.091C236.278 399.689 236.975 399.386 237.756 399.182C238.544 398.977 239.369 398.833 240.233 398.75C241.248 398.644 242.066 398.545 242.688 398.455C243.309 398.356 243.759 398.212 244.04 398.023C244.32 397.833 244.46 397.553 244.46 397.182V397.114C244.46 396.394 244.233 395.837 243.778 395.443C243.331 395.049 242.695 394.852 241.869 394.852C240.998 394.852 240.305 395.045 239.79 395.432C239.275 395.811 238.934 396.288 238.767 396.864L234.29 396.5C234.517 395.439 234.964 394.523 235.631 393.75C236.297 392.97 237.157 392.371 238.21 391.955C239.271 391.53 240.498 391.318 241.892 391.318C242.862 391.318 243.79 391.432 244.676 391.659C245.57 391.886 246.362 392.239 247.051 392.716C247.748 393.193 248.297 393.807 248.699 394.557C249.1 395.299 249.301 396.189 249.301 397.227V409H244.71V406.58H244.574C244.294 407.125 243.919 407.606 243.449 408.023C242.979 408.432 242.415 408.754 241.756 408.989C241.097 409.216 240.335 409.33 239.472 409.33ZM240.858 405.989C241.57 405.989 242.199 405.848 242.744 405.568C243.29 405.28 243.718 404.894 244.028 404.409C244.339 403.924 244.494 403.375 244.494 402.761V400.909C244.343 401.008 244.134 401.098 243.869 401.182C243.612 401.258 243.32 401.33 242.994 401.398C242.669 401.458 242.343 401.515 242.017 401.568C241.691 401.614 241.396 401.655 241.131 401.693C240.563 401.777 240.066 401.909 239.642 402.091C239.218 402.273 238.888 402.519 238.653 402.83C238.419 403.133 238.301 403.511 238.301 403.966C238.301 404.625 238.54 405.129 239.017 405.477C239.502 405.818 240.116 405.989 240.858 405.989ZM259.489 409.284C258.163 409.284 256.962 408.943 255.886 408.261C254.818 407.572 253.97 406.561 253.341 405.227C252.72 403.886 252.409 402.242 252.409 400.295C252.409 398.295 252.731 396.633 253.375 395.307C254.019 393.973 254.875 392.977 255.943 392.318C257.019 391.652 258.197 391.318 259.477 391.318C260.455 391.318 261.269 391.485 261.92 391.818C262.58 392.144 263.11 392.553 263.511 393.045C263.92 393.53 264.231 394.008 264.443 394.477H264.591V385.727H269.42V409H264.648V406.205H264.443C264.216 406.689 263.894 407.17 263.477 407.648C263.068 408.117 262.534 408.508 261.875 408.818C261.223 409.129 260.428 409.284 259.489 409.284ZM261.023 405.432C261.803 405.432 262.462 405.22 263 404.795C263.545 404.364 263.962 403.761 264.25 402.989C264.545 402.216 264.693 401.311 264.693 400.273C264.693 399.235 264.549 398.333 264.261 397.568C263.973 396.803 263.557 396.212 263.011 395.795C262.466 395.379 261.803 395.17 261.023 395.17C260.227 395.17 259.557 395.386 259.011 395.818C258.466 396.25 258.053 396.848 257.773 397.614C257.492 398.379 257.352 399.265 257.352 400.273C257.352 401.288 257.492 402.186 257.773 402.966C258.061 403.739 258.473 404.345 259.011 404.784C259.557 405.216 260.227 405.432 261.023 405.432ZM287.923 396.523L283.491 396.795C283.416 396.417 283.253 396.076 283.003 395.773C282.753 395.462 282.423 395.216 282.014 395.034C281.613 394.845 281.132 394.75 280.571 394.75C279.821 394.75 279.188 394.909 278.673 395.227C278.158 395.538 277.901 395.955 277.901 396.477C277.901 396.894 278.067 397.246 278.401 397.534C278.734 397.822 279.306 398.053 280.116 398.227L283.276 398.864C284.973 399.212 286.238 399.773 287.071 400.545C287.904 401.318 288.321 402.333 288.321 403.591C288.321 404.735 287.984 405.739 287.31 406.602C286.643 407.466 285.726 408.14 284.56 408.625C283.401 409.102 282.063 409.341 280.548 409.341C278.238 409.341 276.397 408.86 275.026 407.898C273.662 406.928 272.863 405.61 272.628 403.943L277.389 403.693C277.533 404.398 277.882 404.936 278.435 405.307C278.988 405.67 279.696 405.852 280.56 405.852C281.408 405.852 282.09 405.689 282.605 405.364C283.128 405.03 283.393 404.602 283.401 404.08C283.393 403.64 283.207 403.28 282.844 403C282.48 402.712 281.92 402.492 281.162 402.341L278.139 401.739C276.435 401.398 275.166 400.807 274.332 399.966C273.507 399.125 273.094 398.053 273.094 396.75C273.094 395.629 273.397 394.663 274.003 393.852C274.616 393.042 275.476 392.417 276.582 391.977C277.696 391.538 278.999 391.318 280.491 391.318C282.696 391.318 284.431 391.784 285.696 392.716C286.969 393.648 287.711 394.917 287.923 396.523ZM301.764 415.545C301.151 415.545 300.575 415.496 300.037 415.398C299.507 415.307 299.067 415.189 298.719 415.045L299.81 411.432C300.378 411.606 300.889 411.701 301.344 411.716C301.806 411.731 302.204 411.625 302.537 411.398C302.878 411.17 303.154 410.784 303.366 410.239L303.651 409.5L297.389 391.545H302.48L306.094 404.364H306.276L309.923 391.545H315.048L308.264 410.886C307.938 411.826 307.495 412.644 306.935 413.341C306.382 414.045 305.681 414.587 304.832 414.966C303.984 415.352 302.961 415.545 301.764 415.545ZM324.918 409.341C323.122 409.341 321.577 408.977 320.281 408.25C318.993 407.515 318.001 406.477 317.304 405.136C316.607 403.788 316.259 402.193 316.259 400.352C316.259 398.557 316.607 396.981 317.304 395.625C318.001 394.269 318.982 393.212 320.247 392.455C321.52 391.697 323.012 391.318 324.724 391.318C325.876 391.318 326.948 391.504 327.94 391.875C328.94 392.239 329.812 392.788 330.554 393.523C331.304 394.258 331.887 395.182 332.304 396.295C332.721 397.402 332.929 398.697 332.929 400.182V401.511H318.19V398.511H328.372C328.372 397.814 328.221 397.197 327.918 396.659C327.615 396.121 327.194 395.701 326.656 395.398C326.126 395.087 325.509 394.932 324.804 394.932C324.069 394.932 323.418 395.102 322.849 395.443C322.289 395.777 321.849 396.227 321.531 396.795C321.213 397.356 321.05 397.981 321.043 398.67V401.523C321.043 402.386 321.202 403.133 321.52 403.761C321.846 404.39 322.304 404.875 322.895 405.216C323.486 405.557 324.187 405.727 324.997 405.727C325.535 405.727 326.027 405.652 326.474 405.5C326.921 405.348 327.304 405.121 327.622 404.818C327.94 404.515 328.183 404.144 328.349 403.705L332.827 404C332.599 405.076 332.134 406.015 331.429 406.818C330.732 407.614 329.83 408.235 328.724 408.682C327.626 409.121 326.357 409.341 324.918 409.341ZM345.372 391.545V395.182H334.861V391.545H345.372ZM337.247 387.364H342.088V403.636C342.088 404.083 342.156 404.432 342.293 404.682C342.429 404.924 342.618 405.095 342.861 405.193C343.111 405.292 343.399 405.341 343.724 405.341C343.952 405.341 344.179 405.322 344.406 405.284C344.634 405.239 344.808 405.205 344.929 405.182L345.69 408.784C345.448 408.86 345.107 408.947 344.668 409.045C344.228 409.152 343.694 409.216 343.065 409.239C341.899 409.284 340.876 409.129 339.997 408.773C339.126 408.417 338.448 407.864 337.963 407.114C337.478 406.364 337.24 405.417 337.247 404.273V387.364Z" fill="white"/>
<g filter="url(#filter0_d_338_78)">
<path d="M209 278L121.917 191.125L146.3 165.931L191.583 211.106V69.5H226.417V211.106L271.7 165.931L296.083 191.125L209 278ZM104.5 347.5C94.9209 347.5 86.7206 344.097 79.899 337.292C73.0775 330.487 69.6667 322.306 69.6667 312.75V260.625H104.5V312.75H313.5V260.625H348.333V312.75C348.333 322.306 344.923 330.487 338.101 337.292C331.28 344.097 323.079 347.5 313.5 347.5H104.5Z" fill="white"/>
</g>
<defs>
<filter id="filter0_d_338_78" x="-4" y="0" width="426" height="425" filterUnits="userSpaceOnUse" color-interpolation-filters="sRGB">
<feFlood flood-opacity="0" result="BackgroundImageFix"/>
<feColorMatrix in="SourceAlpha" type="matrix" values="0 0 0 0 0 0 0 0 0 0 0 0 0 0 0 0 0 0 127 0" result="hardAlpha"/>
<feOffset dy="4"/>
<feGaussianBlur stdDeviation="2"/>
<feComposite in2="hardAlpha" operator="out"/>
<feColorMatrix type="matrix" values="0 0 0 0 0 0 0 0 0 0 0 0 0 0 0 0 0 0 0.25 0"/>
<feBlend mode="normal" in2="BackgroundImageFix" result="effect1_dropShadow_338_78"/>
<feBlend mode="normal" in="SourceGraphic" in2="effect1_dropShadow_338_78" result="shape"/>
</filter>
</defs>
</svg>
