<svg width="58" height="60" viewBox="0 0 58 60" fill="none" xmlns="http://www.w3.org/2000/svg">
<g filter="url(#filter0_d_245_397)">
<path d="M36.975 38.9667L40.3583 35.7001L31.4167 27.0667V16.3334H26.5833V28.9334L36.975 38.9667ZM29 51.3334C25.6569 51.3334 22.5153 50.7209 19.575 49.4959C16.6347 48.2709 14.0771 46.6084 11.9021 44.5084C9.72709 42.4084 8.00521 39.939 6.73646 37.1001C5.46771 34.2612 4.83334 31.2279 4.83334 28.0001C4.83334 24.7723 5.46771 21.739 6.73646 18.9001C8.00521 16.0612 9.72709 13.5917 11.9021 11.4917C14.0771 9.39175 16.6347 7.72925 19.575 6.50425C22.5153 5.27925 25.6569 4.66675 29 4.66675C32.3431 4.66675 35.4847 5.27925 38.425 6.50425C41.3653 7.72925 43.9229 9.39175 46.0979 11.4917C48.2729 13.5917 49.9948 16.0612 51.2635 18.9001C52.5323 21.739 53.1667 24.7723 53.1667 28.0001C53.1667 31.2279 52.5323 34.2612 51.2635 37.1001C49.9948 39.939 48.2729 42.4084 46.0979 44.5084C43.9229 46.6084 41.3653 48.2709 38.425 49.4959C35.4847 50.7209 32.3431 51.3334 29 51.3334ZM29 46.6667C34.3569 46.6667 38.9184 44.8487 42.6844 41.2126C46.4504 37.5765 48.3333 33.1723 48.3333 28.0001C48.3333 22.8279 46.4504 18.4237 42.6844 14.7876C38.9184 11.1515 34.3569 9.33341 29 9.33341C23.6431 9.33341 19.0816 11.1515 15.3156 14.7876C11.5497 18.4237 9.66667 22.8279 9.66667 28.0001C9.66667 33.1723 11.5497 37.5765 15.3156 41.2126C19.0816 44.8487 23.6431 46.6667 29 46.6667Z" fill="white"/>
</g>
<defs>
<filter id="filter0_d_245_397" x="-4" y="0" width="66" height="64" filterUnits="userSpaceOnUse" color-interpolation-filters="sRGB">
<feFlood flood-opacity="0" result="BackgroundImageFix"/>
<feColorMatrix in="SourceAlpha" type="matrix" values="0 0 0 0 0 0 0 0 0 0 0 0 0 0 0 0 0 0 127 0" result="hardAlpha"/>
<feOffset dy="4"/>
<feGaussianBlur stdDeviation="2"/>
<feComposite in2="hardAlpha" operator="out"/>
<feColorMatrix type="matrix" values="0 0 0 0 0 0 0 0 0 0 0 0 0 0 0 0 0 0 0.25 0"/>
<feBlend mode="normal" in2="BackgroundImageFix" result="effect1_dropShadow_245_397"/>
<feBlend mode="normal" in="SourceGraphic" in2="effect1_dropShadow_245_397" result="shape"/>
</filter>
</defs>
</svg>
