<svg width="66" height="64" viewBox="0 0 66 64" fill="none" xmlns="http://www.w3.org/2000/svg">
<g style="mix-blend-mode:lighten" filter="url(#filter0_d_339_80)">
<rect x="4" width="58" height="56" rx="28" fill="#FDFDFD" shape-rendering="crispEdges"/>
<g filter="url(#filter1_d_339_80)">
<path d="M40.975 38.9667L44.3583 35.7001L35.4167 27.0667V16.3334H30.5833V28.9334L40.975 38.9667ZM33 51.3334C29.657 51.3334 26.5153 50.7209 23.575 49.4959C20.6347 48.2709 18.0771 46.6084 15.9021 44.5084C13.7271 42.4084 12.0052 39.939 10.7365 37.1001C9.46772 34.2612 8.83334 31.2279 8.83334 28.0001C8.83334 24.7723 9.46772 21.739 10.7365 18.9001C12.0052 16.0612 13.7271 13.5917 15.9021 11.4917C18.0771 9.39175 20.6347 7.72925 23.575 6.50425C26.5153 5.27925 29.657 4.66675 33 4.66675C36.3431 4.66675 39.4847 5.27925 42.425 6.50425C45.3653 7.72925 47.9229 9.39175 50.0979 11.4917C52.2729 13.5917 53.9948 16.0612 55.2636 18.9001C56.5323 21.739 57.1667 24.7723 57.1667 28.0001C57.1667 31.2279 56.5323 34.2612 55.2636 37.1001C53.9948 39.939 52.2729 42.4084 50.0979 44.5084C47.9229 46.6084 45.3653 48.2709 42.425 49.4959C39.4847 50.7209 36.3431 51.3334 33 51.3334ZM33 46.6667C38.357 46.6667 42.9184 44.8487 46.6844 41.2126C50.4504 37.5765 52.3333 33.1723 52.3333 28.0001C52.3333 22.8279 50.4504 18.4237 46.6844 14.7876C42.9184 11.1515 38.357 9.33341 33 9.33341C27.6431 9.33341 23.0816 11.1515 19.3156 14.7876C15.5497 18.4237 13.6667 22.8279 13.6667 28.0001C13.6667 33.1723 15.5497 37.5765 19.3156 41.2126C23.0816 44.8487 27.6431 46.6667 33 46.6667Z" fill="#1D1B20"/>
</g>
</g>
<defs>
<filter id="filter0_d_339_80" x="0" y="0" width="66" height="64" filterUnits="userSpaceOnUse" color-interpolation-filters="sRGB">
<feFlood flood-opacity="0" result="BackgroundImageFix"/>
<feColorMatrix in="SourceAlpha" type="matrix" values="0 0 0 0 0 0 0 0 0 0 0 0 0 0 0 0 0 0 127 0" result="hardAlpha"/>
<feOffset dy="4"/>
<feGaussianBlur stdDeviation="2"/>
<feComposite in2="hardAlpha" operator="out"/>
<feColorMatrix type="matrix" values="0 0 0 0 0 0 0 0 0 0 0 0 0 0 0 0 0 0 0.25 0"/>
<feBlend mode="normal" in2="BackgroundImageFix" result="effect1_dropShadow_339_80"/>
<feBlend mode="normal" in="SourceGraphic" in2="effect1_dropShadow_339_80" result="shape"/>
</filter>
<filter id="filter1_d_339_80" x="4.83334" y="4.66675" width="56.3333" height="54.6667" filterUnits="userSpaceOnUse" color-interpolation-filters="sRGB">
<feFlood flood-opacity="0" result="BackgroundImageFix"/>
<feColorMatrix in="SourceAlpha" type="matrix" values="0 0 0 0 0 0 0 0 0 0 0 0 0 0 0 0 0 0 127 0" result="hardAlpha"/>
<feOffset dy="4"/>
<feGaussianBlur stdDeviation="2"/>
<feComposite in2="hardAlpha" operator="out"/>
<feColorMatrix type="matrix" values="0 0 0 0 0 0 0 0 0 0 0 0 0 0 0 0 0 0 0.25 0"/>
<feBlend mode="normal" in2="BackgroundImageFix" result="effect1_dropShadow_339_80"/>
<feBlend mode="normal" in="SourceGraphic" in2="effect1_dropShadow_339_80" result="shape"/>
</filter>
</defs>
</svg>
