<svg width="58" height="52" viewBox="0 0 58 52" fill="none" xmlns="http://www.w3.org/2000/svg">
<path d="M55.0976 20.9142C54.9055 18.9843 53.778 17.2108 51.9399 16.017L35.2352 4.81256L34.7935 4.53653C31.2024 2.39961 26.3191 2.49162 22.8349 4.81256L5.74342 16.3367C4.0425 17.6018 3.02469 19.419 3 21.3765V40.4891C3.30178 45.2299 7.99303 49 13.7268 49H18.6375L18.9941 48.9793C21.3809 48.839 23.3013 47.3461 23.6278 45.3886L23.658 45.2299L23.6854 45.1816C23.7101 45.0666 23.7403 44.9056 23.7403 44.7699V38.2142L23.7677 38.0049C23.8774 37.3148 24.5907 36.7858 25.4659 36.7628H32.7936L33.0405 36.7858C33.8882 36.9031 34.5219 37.4988 34.5219 38.2142V44.7906L34.5493 45.1149C34.7414 47.2541 36.8511 48.9563 39.4601 49H44.9195C50.5956 48.747 55.125 44.8366 55.125 40.0291V21.3765L55.0976 20.9142Z" stroke="#FFFBFB" stroke-width="5"/>
</svg>
