<svg width="56" height="55" viewBox="0 0 56 55" fill="none" xmlns="http://www.w3.org/2000/svg">
<path d="M55.9705 21.4191C55.7642 19.1116 54.5528 16.9912 52.5781 15.5638L34.6316 2.16719L34.1571 1.83715C30.2989 -0.717854 25.0526 -0.607843 21.3095 2.16719L2.94737 15.9461C1.12 17.4587 0.0265263 19.6314 0 21.9719V44.824C0.324211 50.4923 5.36421 55 11.5242 55H16.8L17.1832 54.9753C19.7474 54.8075 21.8105 53.0226 22.1613 50.6821L22.1937 50.4923L22.2232 50.4345C22.2497 50.297 22.2821 50.1045 22.2821 49.9422V42.104L22.3116 41.8537C22.4295 41.0286 23.1958 40.396 24.136 40.3685H32.0084L32.2737 40.396C33.1844 40.5363 33.8653 41.2486 33.8653 42.104V49.967L33.8947 50.3548C34.1011 52.9125 36.3676 54.9477 39.1705 55H45.0358C51.1339 54.6975 56 50.022 56 44.2739V21.9719L55.9705 21.4191Z" fill="white"/>
</svg>
