<svg width="499" height="445" viewBox="0 0 499 445" fill="none" xmlns="http://www.w3.org/2000/svg">
<path d="M123.489 413.727V437H119.239L109.114 422.352H108.943V437H104.023V413.727H108.341L118.386 428.364H118.591V413.727H123.489ZM135.349 437.341C133.584 437.341 132.058 436.966 130.77 436.216C129.49 435.458 128.501 434.405 127.804 433.057C127.107 431.701 126.759 430.129 126.759 428.341C126.759 426.538 127.107 424.962 127.804 423.614C128.501 422.258 129.49 421.205 130.77 420.455C132.058 419.697 133.584 419.318 135.349 419.318C137.115 419.318 138.637 419.697 139.918 420.455C141.205 421.205 142.198 422.258 142.895 423.614C143.592 424.962 143.94 426.538 143.94 428.341C143.94 430.129 143.592 431.701 142.895 433.057C142.198 434.405 141.205 435.458 139.918 436.216C138.637 436.966 137.115 437.341 135.349 437.341ZM135.372 433.591C136.175 433.591 136.846 433.364 137.384 432.909C137.921 432.447 138.327 431.818 138.599 431.023C138.88 430.227 139.02 429.322 139.02 428.307C139.02 427.292 138.88 426.386 138.599 425.591C138.327 424.795 137.921 424.167 137.384 423.705C136.846 423.242 136.175 423.011 135.372 423.011C134.562 423.011 133.88 423.242 133.327 423.705C132.781 424.167 132.368 424.795 132.088 425.591C131.815 426.386 131.679 427.292 131.679 428.307C131.679 429.322 131.815 430.227 132.088 431.023C132.368 431.818 132.781 432.447 133.327 432.909C133.88 433.364 134.562 433.591 135.372 433.591ZM169.017 424.523L164.585 424.795C164.509 424.417 164.347 424.076 164.097 423.773C163.847 423.462 163.517 423.216 163.108 423.034C162.706 422.845 162.225 422.75 161.665 422.75C160.915 422.75 160.282 422.909 159.767 423.227C159.252 423.538 158.994 423.955 158.994 424.477C158.994 424.894 159.161 425.246 159.494 425.534C159.828 425.822 160.4 426.053 161.21 426.227L164.369 426.864C166.066 427.212 167.331 427.773 168.165 428.545C168.998 429.318 169.415 430.333 169.415 431.591C169.415 432.735 169.078 433.739 168.403 434.602C167.737 435.466 166.82 436.14 165.653 436.625C164.494 437.102 163.157 437.341 161.642 437.341C159.331 437.341 157.491 436.86 156.119 435.898C154.756 434.928 153.956 433.61 153.722 431.943L158.483 431.693C158.627 432.398 158.975 432.936 159.528 433.307C160.081 433.67 160.79 433.852 161.653 433.852C162.502 433.852 163.184 433.689 163.699 433.364C164.222 433.03 164.487 432.602 164.494 432.08C164.487 431.64 164.301 431.28 163.938 431C163.574 430.712 163.013 430.492 162.256 430.341L159.233 429.739C157.528 429.398 156.259 428.807 155.426 427.966C154.6 427.125 154.188 426.053 154.188 424.75C154.188 423.629 154.491 422.663 155.097 421.852C155.71 421.042 156.57 420.417 157.676 419.977C158.79 419.538 160.093 419.318 161.585 419.318C163.79 419.318 165.525 419.784 166.79 420.716C168.063 421.648 168.805 422.917 169.017 424.523ZM177.44 437.33C176.327 437.33 175.334 437.136 174.463 436.75C173.592 436.356 172.902 435.777 172.395 435.011C171.895 434.239 171.645 433.277 171.645 432.125C171.645 431.155 171.823 430.341 172.179 429.682C172.535 429.023 173.02 428.492 173.634 428.091C174.247 427.689 174.944 427.386 175.724 427.182C176.512 426.977 177.338 426.833 178.202 426.75C179.217 426.644 180.035 426.545 180.656 426.455C181.277 426.356 181.728 426.212 182.009 426.023C182.289 425.833 182.429 425.553 182.429 425.182V425.114C182.429 424.394 182.202 423.837 181.747 423.443C181.3 423.049 180.664 422.852 179.838 422.852C178.967 422.852 178.274 423.045 177.759 423.432C177.243 423.811 176.902 424.288 176.736 424.864L172.259 424.5C172.486 423.439 172.933 422.523 173.599 421.75C174.266 420.97 175.126 420.371 176.179 419.955C177.24 419.53 178.467 419.318 179.861 419.318C180.83 419.318 181.759 419.432 182.645 419.659C183.539 419.886 184.33 420.239 185.02 420.716C185.717 421.193 186.266 421.807 186.668 422.557C187.069 423.299 187.27 424.189 187.27 425.227V437H182.679V434.58H182.543C182.262 435.125 181.887 435.606 181.418 436.023C180.948 436.432 180.384 436.754 179.724 436.989C179.065 437.216 178.304 437.33 177.44 437.33ZM178.827 433.989C179.539 433.989 180.168 433.848 180.713 433.568C181.259 433.28 181.687 432.894 181.997 432.409C182.308 431.924 182.463 431.375 182.463 430.761V428.909C182.312 429.008 182.103 429.098 181.838 429.182C181.58 429.258 181.289 429.33 180.963 429.398C180.637 429.458 180.312 429.515 179.986 429.568C179.66 429.614 179.365 429.655 179.099 429.693C178.531 429.777 178.035 429.909 177.611 430.091C177.187 430.273 176.857 430.519 176.622 430.83C176.387 431.133 176.27 431.511 176.27 431.966C176.27 432.625 176.509 433.129 176.986 433.477C177.471 433.818 178.084 433.989 178.827 433.989ZM206.673 419.545L200.571 437H195.116L189.014 419.545H194.128L197.753 432.034H197.935L201.548 419.545H206.673ZM216.543 437.341C214.747 437.341 213.202 436.977 211.906 436.25C210.618 435.515 209.626 434.477 208.929 433.136C208.232 431.788 207.884 430.193 207.884 428.352C207.884 426.557 208.232 424.981 208.929 423.625C209.626 422.269 210.607 421.212 211.872 420.455C213.145 419.697 214.637 419.318 216.349 419.318C217.501 419.318 218.573 419.504 219.565 419.875C220.565 420.239 221.437 420.788 222.179 421.523C222.929 422.258 223.512 423.182 223.929 424.295C224.346 425.402 224.554 426.697 224.554 428.182V429.511H209.815V426.511H219.997C219.997 425.814 219.846 425.197 219.543 424.659C219.24 424.121 218.819 423.701 218.281 423.398C217.751 423.087 217.134 422.932 216.429 422.932C215.694 422.932 215.043 423.102 214.474 423.443C213.914 423.777 213.474 424.227 213.156 424.795C212.838 425.356 212.675 425.981 212.668 426.67V429.523C212.668 430.386 212.827 431.133 213.145 431.761C213.471 432.39 213.929 432.875 214.52 433.216C215.111 433.557 215.812 433.727 216.622 433.727C217.16 433.727 217.652 433.652 218.099 433.5C218.546 433.348 218.929 433.121 219.247 432.818C219.565 432.515 219.808 432.144 219.974 431.705L224.452 432C224.224 433.076 223.759 434.015 223.054 434.818C222.357 435.614 221.455 436.235 220.349 436.682C219.251 437.121 217.982 437.341 216.543 437.341ZM234.145 437.284C232.819 437.284 231.618 436.943 230.543 436.261C229.474 435.572 228.626 434.561 227.997 433.227C227.376 431.886 227.065 430.242 227.065 428.295C227.065 426.295 227.387 424.633 228.031 423.307C228.675 421.973 229.531 420.977 230.599 420.318C231.675 419.652 232.853 419.318 234.134 419.318C235.111 419.318 235.925 419.485 236.577 419.818C237.236 420.144 237.766 420.553 238.168 421.045C238.577 421.53 238.887 422.008 239.099 422.477H239.247V413.727H244.077V437H239.304V434.205H239.099C238.872 434.689 238.55 435.17 238.134 435.648C237.724 436.117 237.19 436.508 236.531 436.818C235.88 437.129 235.084 437.284 234.145 437.284ZM235.679 433.432C236.459 433.432 237.118 433.22 237.656 432.795C238.202 432.364 238.618 431.761 238.906 430.989C239.202 430.216 239.349 429.311 239.349 428.273C239.349 427.235 239.205 426.333 238.918 425.568C238.63 424.803 238.213 424.212 237.668 423.795C237.122 423.379 236.459 423.17 235.679 423.17C234.884 423.17 234.213 423.386 233.668 423.818C233.122 424.25 232.709 424.848 232.429 425.614C232.149 426.379 232.009 427.265 232.009 428.273C232.009 429.288 232.149 430.186 232.429 430.966C232.717 431.739 233.13 432.345 233.668 432.784C234.213 433.216 234.884 433.432 235.679 433.432ZM255.463 437V419.545H260.304V437H255.463ZM257.895 417.295C257.175 417.295 256.558 417.057 256.043 416.58C255.535 416.095 255.281 415.515 255.281 414.841C255.281 414.174 255.535 413.602 256.043 413.125C256.558 412.64 257.175 412.398 257.895 412.398C258.615 412.398 259.228 412.64 259.736 413.125C260.251 413.602 260.509 414.174 260.509 414.841C260.509 415.515 260.251 416.095 259.736 416.58C259.228 417.057 258.615 417.295 257.895 417.295ZM273.466 419.545V423.182H262.955V419.545H273.466ZM265.341 415.364H270.182V431.636C270.182 432.083 270.25 432.432 270.386 432.682C270.523 432.924 270.712 433.095 270.955 433.193C271.205 433.292 271.492 433.341 271.818 433.341C272.045 433.341 272.273 433.322 272.5 433.284C272.727 433.239 272.902 433.205 273.023 433.182L273.784 436.784C273.542 436.86 273.201 436.947 272.761 437.045C272.322 437.152 271.788 437.216 271.159 437.239C269.992 437.284 268.97 437.129 268.091 436.773C267.22 436.417 266.542 435.864 266.057 435.114C265.572 434.364 265.333 433.417 265.341 432.273V415.364ZM284.386 437.341C282.591 437.341 281.045 436.977 279.75 436.25C278.462 435.515 277.47 434.477 276.773 433.136C276.076 431.788 275.727 430.193 275.727 428.352C275.727 426.557 276.076 424.981 276.773 423.625C277.47 422.269 278.451 421.212 279.716 420.455C280.989 419.697 282.481 419.318 284.193 419.318C285.345 419.318 286.417 419.504 287.409 419.875C288.409 420.239 289.28 420.788 290.023 421.523C290.773 422.258 291.356 423.182 291.773 424.295C292.189 425.402 292.398 426.697 292.398 428.182V429.511H277.659V426.511H287.841C287.841 425.814 287.689 425.197 287.386 424.659C287.083 424.121 286.663 423.701 286.125 423.398C285.595 423.087 284.977 422.932 284.273 422.932C283.538 422.932 282.886 423.102 282.318 423.443C281.758 423.777 281.318 424.227 281 424.795C280.682 425.356 280.519 425.981 280.511 426.67V429.523C280.511 430.386 280.67 431.133 280.989 431.761C281.314 432.39 281.773 432.875 282.364 433.216C282.955 433.557 283.655 433.727 284.466 433.727C285.004 433.727 285.496 433.652 285.943 433.5C286.39 433.348 286.773 433.121 287.091 432.818C287.409 432.515 287.652 432.144 287.818 431.705L292.295 432C292.068 433.076 291.602 434.015 290.898 434.818C290.201 435.614 289.299 436.235 288.193 436.682C287.095 437.121 285.826 437.341 284.386 437.341ZM295.557 437V419.545H300.17V422.625H300.375C300.739 421.602 301.345 420.795 302.193 420.205C303.042 419.614 304.057 419.318 305.239 419.318C306.436 419.318 307.455 419.617 308.295 420.216C309.136 420.807 309.697 421.61 309.977 422.625H310.159C310.515 421.625 311.159 420.826 312.091 420.227C313.03 419.621 314.14 419.318 315.42 419.318C317.049 419.318 318.371 419.837 319.386 420.875C320.409 421.905 320.92 423.367 320.92 425.261V437H316.091V426.216C316.091 425.246 315.833 424.519 315.318 424.034C314.803 423.549 314.159 423.307 313.386 423.307C312.508 423.307 311.822 423.587 311.33 424.148C310.837 424.701 310.591 425.432 310.591 426.341V437H305.898V426.114C305.898 425.258 305.652 424.576 305.159 424.068C304.674 423.561 304.034 423.307 303.239 423.307C302.701 423.307 302.216 423.443 301.784 423.716C301.36 423.981 301.023 424.356 300.773 424.841C300.523 425.318 300.398 425.879 300.398 426.523V437H295.557ZM339.267 424.523L334.835 424.795C334.759 424.417 334.597 424.076 334.347 423.773C334.097 423.462 333.767 423.216 333.358 423.034C332.956 422.845 332.475 422.75 331.915 422.75C331.165 422.75 330.532 422.909 330.017 423.227C329.502 423.538 329.244 423.955 329.244 424.477C329.244 424.894 329.411 425.246 329.744 425.534C330.078 425.822 330.65 426.053 331.46 426.227L334.619 426.864C336.316 427.212 337.581 427.773 338.415 428.545C339.248 429.318 339.665 430.333 339.665 431.591C339.665 432.735 339.328 433.739 338.653 434.602C337.987 435.466 337.07 436.14 335.903 436.625C334.744 437.102 333.407 437.341 331.892 437.341C329.581 437.341 327.741 436.86 326.369 435.898C325.006 434.928 324.206 433.61 323.972 431.943L328.733 431.693C328.877 432.398 329.225 432.936 329.778 433.307C330.331 433.67 331.04 433.852 331.903 433.852C332.752 433.852 333.434 433.689 333.949 433.364C334.472 433.03 334.737 432.602 334.744 432.08C334.737 431.64 334.551 431.28 334.188 431C333.824 430.712 333.263 430.492 332.506 430.341L329.483 429.739C327.778 429.398 326.509 428.807 325.676 427.966C324.85 427.125 324.438 426.053 324.438 424.75C324.438 423.629 324.741 422.663 325.347 421.852C325.96 421.042 326.82 420.417 327.926 419.977C329.04 419.538 330.343 419.318 331.835 419.318C334.04 419.318 335.775 419.784 337.04 420.716C338.313 421.648 339.055 422.917 339.267 424.523ZM353.108 443.545C352.494 443.545 351.919 443.496 351.381 443.398C350.85 443.307 350.411 443.189 350.062 443.045L351.153 439.432C351.722 439.606 352.233 439.701 352.688 439.716C353.15 439.731 353.547 439.625 353.881 439.398C354.222 439.17 354.498 438.784 354.71 438.239L354.994 437.5L348.733 419.545H353.824L357.438 432.364H357.619L361.267 419.545H366.392L359.608 438.886C359.282 439.826 358.839 440.644 358.278 441.341C357.725 442.045 357.025 442.587 356.176 442.966C355.328 443.352 354.305 443.545 353.108 443.545ZM376.261 437.341C374.466 437.341 372.92 436.977 371.625 436.25C370.337 435.515 369.345 434.477 368.648 433.136C367.951 431.788 367.602 430.193 367.602 428.352C367.602 426.557 367.951 424.981 368.648 423.625C369.345 422.269 370.326 421.212 371.591 420.455C372.864 419.697 374.356 419.318 376.068 419.318C377.22 419.318 378.292 419.504 379.284 419.875C380.284 420.239 381.155 420.788 381.898 421.523C382.648 422.258 383.231 423.182 383.648 424.295C384.064 425.402 384.273 426.697 384.273 428.182V429.511H369.534V426.511H379.716C379.716 425.814 379.564 425.197 379.261 424.659C378.958 424.121 378.538 423.701 378 423.398C377.47 423.087 376.852 422.932 376.148 422.932C375.413 422.932 374.761 423.102 374.193 423.443C373.633 423.777 373.193 424.227 372.875 424.795C372.557 425.356 372.394 425.981 372.386 426.67V429.523C372.386 430.386 372.545 431.133 372.864 431.761C373.189 432.39 373.648 432.875 374.239 433.216C374.83 433.557 375.53 433.727 376.341 433.727C376.879 433.727 377.371 433.652 377.818 433.5C378.265 433.348 378.648 433.121 378.966 432.818C379.284 432.515 379.527 432.144 379.693 431.705L384.17 432C383.943 433.076 383.477 434.015 382.773 434.818C382.076 435.614 381.174 436.235 380.068 436.682C378.97 437.121 377.701 437.341 376.261 437.341ZM396.716 419.545V423.182H386.205V419.545H396.716ZM388.591 415.364H393.432V431.636C393.432 432.083 393.5 432.432 393.636 432.682C393.773 432.924 393.962 433.095 394.205 433.193C394.455 433.292 394.742 433.341 395.068 433.341C395.295 433.341 395.523 433.322 395.75 433.284C395.977 433.239 396.152 433.205 396.273 433.182L397.034 436.784C396.792 436.86 396.451 436.947 396.011 437.045C395.572 437.152 395.038 437.216 394.409 437.239C393.242 437.284 392.22 437.129 391.341 436.773C390.47 436.417 389.792 435.864 389.307 435.114C388.822 434.364 388.583 433.417 388.591 432.273V415.364Z" fill="white"/>
<g filter="url(#filter0_d_333_66)">
<path d="M103.958 382.375V91.0417C103.958 81.0271 108.03 72.454 116.173 65.3224C124.317 58.1908 134.106 54.625 145.542 54.625H353.458C364.894 54.625 374.683 58.1908 382.827 65.3224C390.97 72.454 395.042 81.0271 395.042 91.0417V382.375L249.5 327.75L103.958 382.375ZM145.542 326.84L249.5 287.692L353.458 326.84V91.0417H145.542V326.84Z" fill="white"/>
</g>
<defs>
<filter id="filter0_d_333_66" x="-4" y="0" width="507" height="445" filterUnits="userSpaceOnUse" color-interpolation-filters="sRGB">
<feFlood flood-opacity="0" result="BackgroundImageFix"/>
<feColorMatrix in="SourceAlpha" type="matrix" values="0 0 0 0 0 0 0 0 0 0 0 0 0 0 0 0 0 0 127 0" result="hardAlpha"/>
<feOffset dy="4"/>
<feGaussianBlur stdDeviation="2"/>
<feComposite in2="hardAlpha" operator="out"/>
<feColorMatrix type="matrix" values="0 0 0 0 0 0 0 0 0 0 0 0 0 0 0 0 0 0 0.25 0"/>
<feBlend mode="normal" in2="BackgroundImageFix" result="effect1_dropShadow_333_66"/>
<feBlend mode="normal" in="SourceGraphic" in2="effect1_dropShadow_333_66" result="shape"/>
</filter>
</defs>
</svg>
