<svg width="49" height="51" viewBox="0 0 49 51" fill="none" xmlns="http://www.w3.org/2000/svg">
<path d="M40.0167 44.625L27.1542 31.2375C26.1333 32.0875 24.9594 32.7604 23.6323 33.2563C22.3052 33.7521 20.8931 34 19.3958 34C15.6868 34 12.5477 32.663 9.97865 29.9891C7.40955 27.3151 6.125 24.0479 6.125 20.1875C6.125 16.3271 7.40955 13.0599 9.97865 10.3859C12.5477 7.71198 15.6868 6.375 19.3958 6.375C23.1049 6.375 26.2439 7.71198 28.813 10.3859C31.3821 13.0599 32.6667 16.3271 32.6667 20.1875C32.6667 21.7458 32.4285 23.2156 31.9521 24.5969C31.4757 25.9781 30.8292 27.2 30.0125 28.2625L42.875 41.65L40.0167 44.625ZM19.3958 29.75C21.9479 29.75 24.1172 28.8203 25.9036 26.9609C27.6901 25.1016 28.5833 22.8438 28.5833 20.1875C28.5833 17.5312 27.6901 15.2734 25.9036 13.4141C24.1172 11.5547 21.9479 10.625 19.3958 10.625C16.8438 10.625 14.6745 11.5547 12.888 13.4141C11.1016 15.2734 10.2083 17.5312 10.2083 20.1875C10.2083 22.8438 11.1016 25.1016 12.888 26.9609C14.6745 28.8203 16.8438 29.75 19.3958 29.75Z" fill="white"/>
</svg>
