<svg width="58" height="60" viewBox="0 0 58 60" fill="none" xmlns="http://www.w3.org/2000/svg">
<g filter="url(#filter0_d_245_407)">
<path d="M22.3542 51.3334L21.3875 43.8667C20.8639 43.6723 20.3705 43.439 19.9073 43.1667C19.4441 42.8945 18.991 42.6029 18.5479 42.2917L11.3583 45.2084L4.7125 34.1251L10.9354 29.5751C10.8951 29.3029 10.875 29.0404 10.875 28.7876V27.2126C10.875 26.9598 10.8951 26.6973 10.9354 26.4251L4.7125 21.8751L11.3583 10.7917L18.5479 13.7084C18.991 13.3973 19.4542 13.1056 19.9375 12.8334C20.4208 12.5612 20.9042 12.3279 21.3875 12.1334L22.3542 4.66675H35.6458L36.6125 12.1334C37.1361 12.3279 37.6295 12.5612 38.0927 12.8334C38.5559 13.1056 39.009 13.3973 39.4521 13.7084L46.6417 10.7917L53.2875 21.8751L47.0646 26.4251C47.1049 26.6973 47.125 26.9598 47.125 27.2126V28.7876C47.125 29.0404 47.0847 29.3029 47.0042 29.5751L53.2271 34.1251L46.5813 45.2084L39.4521 42.2917C39.009 42.6029 38.5458 42.8945 38.0625 43.1667C37.5792 43.439 37.0958 43.6723 36.6125 43.8667L35.6458 51.3334H22.3542ZM29.1208 36.1667C31.4569 36.1667 33.4507 35.3695 35.1021 33.7751C36.7535 32.1806 37.5792 30.2556 37.5792 28.0001C37.5792 25.7445 36.7535 23.8195 35.1021 22.2251C33.4507 20.6306 31.4569 19.8334 29.1208 19.8334C26.7444 19.8334 24.7406 20.6306 23.1094 22.2251C21.4781 23.8195 20.6625 25.7445 20.6625 28.0001C20.6625 30.2556 21.4781 32.1806 23.1094 33.7751C24.7406 35.3695 26.7444 36.1667 29.1208 36.1667Z" fill="white"/>
</g>
<defs>
<filter id="filter0_d_245_407" x="-4" y="0" width="66" height="64" filterUnits="userSpaceOnUse" color-interpolation-filters="sRGB">
<feFlood flood-opacity="0" result="BackgroundImageFix"/>
<feColorMatrix in="SourceAlpha" type="matrix" values="0 0 0 0 0 0 0 0 0 0 0 0 0 0 0 0 0 0 127 0" result="hardAlpha"/>
<feOffset dy="4"/>
<feGaussianBlur stdDeviation="2"/>
<feComposite in2="hardAlpha" operator="out"/>
<feColorMatrix type="matrix" values="0 0 0 0 0 0 0 0 0 0 0 0 0 0 0 0 0 0 0.25 0"/>
<feBlend mode="normal" in2="BackgroundImageFix" result="effect1_dropShadow_245_407"/>
<feBlend mode="normal" in="SourceGraphic" in2="effect1_dropShadow_245_407" result="shape"/>
</filter>
</defs>
</svg>
