<svg width="131" height="131" viewBox="0 0 131 131" fill="none" xmlns="http://www.w3.org/2000/svg">
<path d="M50.4896 120.083L48.3062 102.617C47.1236 102.162 46.0092 101.616 44.963 100.979C43.9168 100.342 42.8934 99.6602 41.8927 98.9324L25.6542 105.755L10.6437 79.8282L24.6989 69.1845C24.608 68.5477 24.5625 67.9336 24.5625 67.3423V63.6579C24.5625 63.0666 24.608 62.4525 24.6989 61.8157L10.6437 51.172L25.6542 25.2449L41.8927 32.0678C42.8934 31.34 43.9396 30.6577 45.0312 30.0209C46.1229 29.3841 47.2146 28.8383 48.3062 28.3834L50.4896 10.9167H80.5104L82.6937 28.3834C83.8764 28.8383 84.9908 29.3841 86.037 30.0209C87.0831 30.6577 88.1066 31.34 89.1073 32.0678L105.346 25.2449L120.356 51.172L106.301 61.8157C106.392 62.4525 106.437 63.0666 106.437 63.6579V67.3423C106.437 67.9336 106.347 68.5477 106.165 69.1845L120.22 79.8282L105.209 105.755L89.1073 98.9324C88.1066 99.6602 87.0604 100.342 85.9687 100.979C84.8771 101.616 83.7854 102.162 82.6937 102.617L80.5104 120.083H50.4896ZM60.0417 109.167H70.8219L72.7323 94.7022C75.5524 93.9744 78.1679 92.9055 80.5786 91.4954C82.9894 90.0853 85.1955 88.3796 87.1969 86.3782L100.706 91.973L106.028 82.6938L94.2927 73.824C94.7476 72.5504 95.066 71.2086 95.2479 69.7985C95.4299 68.3885 95.5208 66.9556 95.5208 65.5001C95.5208 64.0445 95.4299 62.6117 95.2479 61.2016C95.066 59.7916 94.7476 58.4497 94.2927 57.1761L106.028 48.3063L100.706 39.0272L87.1969 44.7584C85.1955 42.6661 82.9894 40.9148 80.5786 39.5048C78.1679 38.0947 75.5524 37.0258 72.7323 36.298L70.9583 21.8334H60.1781L58.2677 36.298C55.4476 37.0258 52.8321 38.0947 50.4213 39.5048C48.0106 40.9148 45.8045 42.6206 43.8031 44.622L30.2937 39.0272L24.9719 48.3063L36.7073 57.0397C36.2524 58.4042 35.934 59.7688 35.7521 61.1334C35.5701 62.498 35.4792 63.9536 35.4792 65.5001C35.4792 66.9556 35.5701 68.3657 35.7521 69.7303C35.934 71.0949 36.2524 72.4595 36.7073 73.824L24.9719 82.6938L30.2937 91.973L43.8031 86.2418C45.8045 88.3341 48.0106 90.0853 50.4213 91.4954C52.8321 92.9055 55.4476 93.9744 58.2677 94.7022L60.0417 109.167ZM65.7729 84.6043C71.0493 84.6043 75.5524 82.7393 79.2823 79.0095C83.0121 75.2796 84.8771 70.7765 84.8771 65.5001C84.8771 60.2237 83.0121 55.7206 79.2823 51.9907C75.5524 48.2608 71.0493 46.3959 65.7729 46.3959C60.4055 46.3959 55.8797 48.2608 52.1953 51.9907C48.5109 55.7206 46.6687 60.2237 46.6687 65.5001C46.6687 70.7765 48.5109 75.2796 52.1953 79.0095C55.8797 82.7393 60.4055 84.6043 65.7729 84.6043Z" fill="#FEF7FF"/>
</svg>
